<mxfile host="app.diagrams.net" modified="2023-06-18T23:46:52.523Z" agent="Mozilla/5.0 (X11; Ubuntu; Linux x86_64; rv:109.0) Gecko/20100101 Firefox/113.0" etag="MpBjS-Oycixsmx13UURG" version="21.5.0" type="device">
  <diagram name="Page-1" id="Ax06X-4NIvisJhjtFsqR">
    <mxGraphModel dx="1378" dy="822" grid="1" gridSize="10" guides="1" tooltips="1" connect="1" arrows="1" fold="1" page="1" pageScale="1" pageWidth="850" pageHeight="1100" math="0" shadow="0">
      <root>
        <mxCell id="0" />
        <mxCell id="1" parent="0" />
        <mxCell id="MLrWOcbh6ogIc63_uTV6-1" value="Avis" style="rounded=1;whiteSpace=wrap;html=1;fontSize=24;" vertex="1" parent="1">
          <mxGeometry x="190" y="280" width="120" height="60" as="geometry" />
        </mxCell>
        <mxCell id="MLrWOcbh6ogIc63_uTV6-33" style="edgeStyle=orthogonalEdgeStyle;rounded=0;orthogonalLoop=1;jettySize=auto;html=1;entryX=0.5;entryY=0;entryDx=0;entryDy=0;" edge="1" parent="1" source="MLrWOcbh6ogIc63_uTV6-2" target="MLrWOcbh6ogIc63_uTV6-9">
          <mxGeometry relative="1" as="geometry" />
        </mxCell>
        <mxCell id="MLrWOcbh6ogIc63_uTV6-48" style="edgeStyle=orthogonalEdgeStyle;rounded=0;orthogonalLoop=1;jettySize=auto;html=1;entryX=0.75;entryY=0;entryDx=0;entryDy=0;" edge="1" parent="1" source="MLrWOcbh6ogIc63_uTV6-2" target="MLrWOcbh6ogIc63_uTV6-12">
          <mxGeometry relative="1" as="geometry" />
        </mxCell>
        <mxCell id="MLrWOcbh6ogIc63_uTV6-52" style="edgeStyle=orthogonalEdgeStyle;rounded=0;orthogonalLoop=1;jettySize=auto;html=1;entryX=0.75;entryY=1;entryDx=0;entryDy=0;exitX=0.25;exitY=0;exitDx=0;exitDy=0;" edge="1" parent="1" source="MLrWOcbh6ogIc63_uTV6-2" target="MLrWOcbh6ogIc63_uTV6-1">
          <mxGeometry relative="1" as="geometry" />
        </mxCell>
        <mxCell id="MLrWOcbh6ogIc63_uTV6-2" value="&lt;div style=&quot;font-size: 24px;&quot;&gt;Livre&lt;/div&gt;" style="rounded=1;whiteSpace=wrap;html=1;fontSize=24;" vertex="1" parent="1">
          <mxGeometry x="305" y="480" width="120" height="60" as="geometry" />
        </mxCell>
        <mxCell id="MLrWOcbh6ogIc63_uTV6-53" style="edgeStyle=orthogonalEdgeStyle;rounded=0;orthogonalLoop=1;jettySize=auto;html=1;" edge="1" parent="1" source="MLrWOcbh6ogIc63_uTV6-5" target="MLrWOcbh6ogIc63_uTV6-1">
          <mxGeometry relative="1" as="geometry" />
        </mxCell>
        <mxCell id="MLrWOcbh6ogIc63_uTV6-73" style="edgeStyle=orthogonalEdgeStyle;rounded=0;orthogonalLoop=1;jettySize=auto;html=1;exitX=1;exitY=0.5;exitDx=0;exitDy=0;entryX=0.5;entryY=0;entryDx=0;entryDy=0;" edge="1" parent="1" source="MLrWOcbh6ogIc63_uTV6-5" target="MLrWOcbh6ogIc63_uTV6-2">
          <mxGeometry relative="1" as="geometry" />
        </mxCell>
        <mxCell id="MLrWOcbh6ogIc63_uTV6-5" value="Critique" style="rounded=1;whiteSpace=wrap;html=1;fontSize=24;" vertex="1" parent="1">
          <mxGeometry x="190" y="120" width="120" height="60" as="geometry" />
        </mxCell>
        <mxCell id="MLrWOcbh6ogIc63_uTV6-50" style="edgeStyle=orthogonalEdgeStyle;rounded=0;orthogonalLoop=1;jettySize=auto;html=1;entryX=1;entryY=0.25;entryDx=0;entryDy=0;" edge="1" parent="1" source="MLrWOcbh6ogIc63_uTV6-6" target="MLrWOcbh6ogIc63_uTV6-2">
          <mxGeometry relative="1" as="geometry" />
        </mxCell>
        <mxCell id="MLrWOcbh6ogIc63_uTV6-6" value="&lt;div&gt;Série&lt;/div&gt;" style="rounded=1;whiteSpace=wrap;html=1;fontSize=24;" vertex="1" parent="1">
          <mxGeometry x="600" y="370" width="120" height="60" as="geometry" />
        </mxCell>
        <mxCell id="MLrWOcbh6ogIc63_uTV6-39" style="edgeStyle=orthogonalEdgeStyle;rounded=0;orthogonalLoop=1;jettySize=auto;html=1;entryX=0.75;entryY=0;entryDx=0;entryDy=0;" edge="1" parent="1" source="MLrWOcbh6ogIc63_uTV6-7" target="MLrWOcbh6ogIc63_uTV6-2">
          <mxGeometry relative="1" as="geometry" />
        </mxCell>
        <mxCell id="MLrWOcbh6ogIc63_uTV6-7" value="Contributeur" style="rounded=1;whiteSpace=wrap;html=1;fontSize=24;" vertex="1" parent="1">
          <mxGeometry x="410" y="270" width="150" height="60" as="geometry" />
        </mxCell>
        <mxCell id="MLrWOcbh6ogIc63_uTV6-46" style="edgeStyle=orthogonalEdgeStyle;rounded=0;orthogonalLoop=1;jettySize=auto;html=1;entryX=0;entryY=0.25;entryDx=0;entryDy=0;" edge="1" parent="1" source="MLrWOcbh6ogIc63_uTV6-8" target="MLrWOcbh6ogIc63_uTV6-2">
          <mxGeometry relative="1" as="geometry" />
        </mxCell>
        <mxCell id="MLrWOcbh6ogIc63_uTV6-71" style="edgeStyle=orthogonalEdgeStyle;rounded=0;orthogonalLoop=1;jettySize=auto;html=1;entryX=0;entryY=0.5;entryDx=0;entryDy=0;exitX=0.75;exitY=0;exitDx=0;exitDy=0;" edge="1" parent="1" source="MLrWOcbh6ogIc63_uTV6-8" target="MLrWOcbh6ogIc63_uTV6-1">
          <mxGeometry relative="1" as="geometry">
            <mxPoint x="70" y="310" as="targetPoint" />
          </mxGeometry>
        </mxCell>
        <mxCell id="MLrWOcbh6ogIc63_uTV6-8" value="Lecteur" style="rounded=1;whiteSpace=wrap;html=1;fontSize=24;" vertex="1" parent="1">
          <mxGeometry x="10" y="450" width="120" height="60" as="geometry" />
        </mxCell>
        <mxCell id="MLrWOcbh6ogIc63_uTV6-9" value="Genre" style="rounded=1;whiteSpace=wrap;html=1;fontSize=24;" vertex="1" parent="1">
          <mxGeometry x="305" y="700" width="120" height="60" as="geometry" />
        </mxCell>
        <mxCell id="MLrWOcbh6ogIc63_uTV6-36" style="edgeStyle=orthogonalEdgeStyle;rounded=0;orthogonalLoop=1;jettySize=auto;html=1;entryX=1;entryY=0.75;entryDx=0;entryDy=0;" edge="1" parent="1" source="MLrWOcbh6ogIc63_uTV6-10" target="MLrWOcbh6ogIc63_uTV6-2">
          <mxGeometry relative="1" as="geometry" />
        </mxCell>
        <mxCell id="MLrWOcbh6ogIc63_uTV6-10" value="&lt;div&gt;Maison d&#39;édition&lt;/div&gt;" style="rounded=1;whiteSpace=wrap;html=1;fontSize=24;" vertex="1" parent="1">
          <mxGeometry x="630" y="650" width="120" height="60" as="geometry" />
        </mxCell>
        <mxCell id="MLrWOcbh6ogIc63_uTV6-38" style="edgeStyle=orthogonalEdgeStyle;rounded=0;orthogonalLoop=1;jettySize=auto;html=1;entryX=1;entryY=0.5;entryDx=0;entryDy=0;" edge="1" parent="1" source="MLrWOcbh6ogIc63_uTV6-11" target="MLrWOcbh6ogIc63_uTV6-2">
          <mxGeometry relative="1" as="geometry" />
        </mxCell>
        <mxCell id="MLrWOcbh6ogIc63_uTV6-11" value="Auteur" style="rounded=1;whiteSpace=wrap;html=1;fontSize=24;" vertex="1" parent="1">
          <mxGeometry x="620" y="480" width="120" height="60" as="geometry" />
        </mxCell>
        <mxCell id="MLrWOcbh6ogIc63_uTV6-12" value="&lt;div&gt;Classification&lt;/div&gt;" style="rounded=1;whiteSpace=wrap;html=1;fontSize=24;" vertex="1" parent="1">
          <mxGeometry x="70" y="650" width="155" height="60" as="geometry" />
        </mxCell>
        <mxCell id="MLrWOcbh6ogIc63_uTV6-55" value="Titre&lt;br&gt;Language&lt;br&gt;Nombre de mots&lt;br&gt;Date publié" style="text;html=1;align=left;verticalAlign=middle;resizable=0;points=[];autosize=1;strokeColor=none;fillColor=none;" vertex="1" parent="1">
          <mxGeometry x="380" y="540" width="110" height="70" as="geometry" />
        </mxCell>
        <mxCell id="MLrWOcbh6ogIc63_uTV6-56" value="&lt;div&gt;Fiction/Non-fiction&lt;/div&gt;" style="text;html=1;align=center;verticalAlign=middle;resizable=0;points=[];autosize=1;strokeColor=none;fillColor=none;" vertex="1" parent="1">
          <mxGeometry x="365" y="760" width="120" height="30" as="geometry" />
        </mxCell>
        <mxCell id="MLrWOcbh6ogIc63_uTV6-57" value="&lt;div&gt;Groupe d&#39;age&lt;/div&gt;" style="text;html=1;align=center;verticalAlign=middle;resizable=0;points=[];autosize=1;strokeColor=none;fillColor=none;" vertex="1" parent="1">
          <mxGeometry x="150" y="710" width="100" height="30" as="geometry" />
        </mxCell>
        <mxCell id="MLrWOcbh6ogIc63_uTV6-60" value="Score&lt;br&gt;Date" style="text;html=1;align=center;verticalAlign=middle;resizable=0;points=[];autosize=1;strokeColor=none;fillColor=none;" vertex="1" parent="1">
          <mxGeometry x="200" y="340" width="50" height="40" as="geometry" />
        </mxCell>
        <mxCell id="MLrWOcbh6ogIc63_uTV6-61" value="&lt;div&gt;Nom&lt;/div&gt;" style="text;html=1;align=center;verticalAlign=middle;resizable=0;points=[];autosize=1;strokeColor=none;fillColor=none;" vertex="1" parent="1">
          <mxGeometry x="690" y="540" width="50" height="30" as="geometry" />
        </mxCell>
        <mxCell id="MLrWOcbh6ogIc63_uTV6-62" value="&lt;div style=&quot;font-size: 18px;&quot;&gt;Publie des&lt;br&gt;&lt;/div&gt;" style="text;html=1;align=center;verticalAlign=middle;resizable=0;points=[];autosize=1;strokeColor=none;fillColor=none;fontSize=18;" vertex="1" parent="1">
          <mxGeometry x="525" y="645" width="110" height="40" as="geometry" />
        </mxCell>
        <mxCell id="MLrWOcbh6ogIc63_uTV6-63" value="&lt;div&gt;Écrit des&lt;/div&gt;" style="text;html=1;align=center;verticalAlign=middle;resizable=0;points=[];autosize=1;strokeColor=none;fillColor=none;fontSize=18;" vertex="1" parent="1">
          <mxGeometry x="525" y="480" width="90" height="40" as="geometry" />
        </mxCell>
        <mxCell id="MLrWOcbh6ogIc63_uTV6-64" value="Contient des" style="text;html=1;align=center;verticalAlign=middle;resizable=0;points=[];autosize=1;strokeColor=none;fillColor=none;fontSize=18;" vertex="1" parent="1">
          <mxGeometry x="485" y="370" width="120" height="40" as="geometry" />
        </mxCell>
        <mxCell id="MLrWOcbh6ogIc63_uTV6-65" value="&lt;div&gt;Ajoute des&lt;/div&gt;" style="text;html=1;align=center;verticalAlign=middle;resizable=0;points=[];autosize=1;strokeColor=none;fillColor=none;fontSize=18;" vertex="1" parent="1">
          <mxGeometry x="380" y="370" width="110" height="40" as="geometry" />
        </mxCell>
        <mxCell id="MLrWOcbh6ogIc63_uTV6-66" value="&lt;div&gt;Écrit des&lt;/div&gt;" style="text;html=1;align=center;verticalAlign=middle;resizable=0;points=[];autosize=1;strokeColor=none;fillColor=none;fontSize=18;" vertex="1" parent="1">
          <mxGeometry x="240" y="210" width="90" height="40" as="geometry" />
        </mxCell>
        <mxCell id="MLrWOcbh6ogIc63_uTV6-67" value="&lt;div&gt;A des&lt;/div&gt;" style="text;html=1;align=center;verticalAlign=middle;resizable=0;points=[];autosize=1;strokeColor=none;fillColor=none;fontSize=18;" vertex="1" parent="1">
          <mxGeometry x="270" y="380" width="70" height="40" as="geometry" />
        </mxCell>
        <mxCell id="MLrWOcbh6ogIc63_uTV6-68" value="Appartient à des" style="text;html=1;align=center;verticalAlign=middle;resizable=0;points=[];autosize=1;strokeColor=none;fillColor=none;fontSize=18;" vertex="1" parent="1">
          <mxGeometry x="270" y="630" width="150" height="40" as="geometry" />
        </mxCell>
        <mxCell id="MLrWOcbh6ogIc63_uTV6-69" value="A une" style="text;html=1;align=center;verticalAlign=middle;resizable=0;points=[];autosize=1;strokeColor=none;fillColor=none;fontSize=18;" vertex="1" parent="1">
          <mxGeometry x="120" y="570" width="70" height="40" as="geometry" />
        </mxCell>
        <mxCell id="MLrWOcbh6ogIc63_uTV6-70" value="Recherche des" style="text;html=1;align=center;verticalAlign=middle;resizable=0;points=[];autosize=1;strokeColor=none;fillColor=none;fontSize=18;" vertex="1" parent="1">
          <mxGeometry x="130" y="450" width="140" height="40" as="geometry" />
        </mxCell>
        <mxCell id="MLrWOcbh6ogIc63_uTV6-72" value="Lit des" style="text;html=1;align=center;verticalAlign=middle;resizable=0;points=[];autosize=1;strokeColor=none;fillColor=none;fontSize=18;" vertex="1" parent="1">
          <mxGeometry x="90" y="280" width="80" height="40" as="geometry" />
        </mxCell>
        <mxCell id="MLrWOcbh6ogIc63_uTV6-74" value="Recherche des" style="text;html=1;align=center;verticalAlign=middle;resizable=0;points=[];autosize=1;strokeColor=none;fillColor=none;fontSize=18;" vertex="1" parent="1">
          <mxGeometry x="310" y="120" width="140" height="40" as="geometry" />
        </mxCell>
        <mxCell id="MLrWOcbh6ogIc63_uTV6-75" value="&lt;div&gt;Titre&lt;/div&gt;" style="text;html=1;align=center;verticalAlign=middle;resizable=0;points=[];autosize=1;strokeColor=none;fillColor=none;" vertex="1" parent="1">
          <mxGeometry x="670" y="430" width="50" height="30" as="geometry" />
        </mxCell>
      </root>
    </mxGraphModel>
  </diagram>
</mxfile>
